<?xml version="1.0" encoding="UTF-8"?><svg id="b" xmlns="http://www.w3.org/2000/svg" viewBox="0 0 16 16"><defs><style>.d{fill:#fff;}.e{fill:#afbe22;}.f{fill:#231815;}</style></defs><g id="c"><g><path class="e" d="M8,0C3.58,0,0,3.58,0,8s3.58,8,8,8,8-3.58,8-8S12.42,0,8,0"/><path class="d" d="M8,14.12c-3.38,0-6.12-2.74-6.12-6.12S4.62,1.88,8,1.88s6.12,2.74,6.12,6.12-2.74,6.12-6.12,6.12"/><path class="f" d="M8.89,3.9c-.19-.16-.43-.26-.68-.26-.19,0-.44,.11-.44,.33s.28,.32,.46,.38l.26,.08c.56,.16,.98,.44,.98,1.08,0,.39-.09,.8-.41,1.07-.31,.26-.73,.37-1.13,.37-.51,0-.99-.17-1.39-.45l.44-.83c.26,.23,.56,.41,.92,.41,.24,0,.5-.12,.5-.4s-.41-.39-.63-.45c-.64-.18-1.07-.35-1.07-1.12s.57-1.33,1.37-1.33c.4,0,.89,.13,1.24,.32l-.41,.8Z"/><path class="f" d="M7.88,10.06c0,1.11-.53,2.3-1.81,2.3s-1.81-1.19-1.81-2.3,.54-2.3,1.81-2.3,1.81,1.2,1.81,2.3m-2.52,0c0,.41,.14,1.33,.71,1.33s.7-.92,.7-1.33-.14-1.32-.7-1.32-.71,.91-.71,1.32"/><polygon class="f" points="8.92 8.86 8.92 7.93 10.64 7.93 10.64 12.19 9.53 12.19 9.53 8.86 8.92 8.86"/></g></g></svg>