<?xml version="1.0" encoding="UTF-8"?><svg id="b" xmlns="http://www.w3.org/2000/svg" viewBox="0 0 16 16"><defs><style>.d{fill:#fff;}.e{fill:#afbe22;}.f{fill:#231815;}</style></defs><g id="c"><g><path class="e" d="M8,0C3.59,0,0,3.59,0,8s3.59,8,8,8,8-3.58,8-8S12.41,0,8,0"/><path class="d" d="M7.99,14.12c-3.38,0-6.11-2.74-6.11-6.12S4.62,1.88,7.99,1.88s6.12,2.74,6.12,6.12-2.74,6.12-6.12,6.12"/><path class="f" d="M8.89,3.89c-.19-.15-.43-.26-.68-.26-.19,0-.44,.11-.44,.33s.28,.32,.45,.38l.26,.08c.55,.16,.98,.44,.98,1.08,0,.39-.09,.8-.41,1.06-.31,.26-.73,.38-1.12,.38-.5,0-.99-.17-1.39-.46l.44-.83c.26,.23,.56,.41,.92,.41,.25,0,.5-.12,.5-.4s-.4-.39-.62-.45c-.65-.19-1.07-.35-1.07-1.12s.57-1.33,1.37-1.33c.4,0,.88,.12,1.24,.32l-.42,.8Z"/><path class="f" d="M7.88,10.06c0,1.1-.53,2.3-1.8,2.3s-1.82-1.2-1.82-2.3,.55-2.31,1.82-2.31,1.8,1.2,1.8,2.31m-2.52,0c0,.41,.13,1.33,.71,1.33s.7-.92,.7-1.33-.14-1.32-.7-1.32-.71,.91-.71,1.32"/><path class="f" d="M8.43,9.15c.04-.45,.22-.78,.49-1.03,.27-.24,.65-.37,1.09-.37,.76,0,1.36,.44,1.36,1.24,0,.34-.14,.7-.45,.88,.45,.12,.7,.64,.7,1.08,0,.93-.81,1.42-1.66,1.42-.49,0-.93-.13-1.28-.49-.25-.26-.5-.7-.49-1.07h1.14c0,.34,.24,.61,.59,.61s.6-.23,.6-.57c0-.32-.28-.57-.59-.57-.07,0-.13,.02-.2,.03v-.74h.11c.28,0,.49-.17,.49-.47,0-.26-.19-.43-.43-.43-.28,0-.46,.22-.45,.49h-1.03Z"/></g></g></svg>