<?xml version="1.0" encoding="UTF-8"?><svg id="b" xmlns="http://www.w3.org/2000/svg" viewBox="0 0 16 16"><defs><style>.d{fill:#fff;}.e{fill:#afbe22;}.f{fill:#231815;}</style></defs><g id="c"><g><path class="e" d="M8,0C3.59,0,0,3.59,0,8s3.59,8,8,8,8-3.58,8-8S12.42,0,8,0"/><path class="d" d="M7.99,14.12c-3.38,0-6.11-2.74-6.11-6.11S4.61,1.88,7.99,1.88s6.13,2.74,6.13,6.13-2.75,6.11-6.13,6.11"/><path class="f" d="M8.89,3.89c-.19-.15-.43-.26-.68-.26-.19,0-.44,.11-.44,.33,0,.23,.28,.32,.46,.38l.26,.08c.55,.16,.98,.44,.98,1.08,0,.39-.09,.8-.41,1.07-.31,.26-.72,.38-1.12,.38-.5,0-.99-.17-1.39-.45l.44-.83c.25,.22,.56,.41,.91,.41,.24,0,.49-.12,.49-.4s-.4-.39-.62-.45c-.65-.19-1.07-.35-1.07-1.12s.57-1.33,1.37-1.33c.4,0,.89,.12,1.24,.32l-.41,.8Z"/><path class="f" d="M7.88,10.06c0,1.1-.54,2.3-1.81,2.3s-1.82-1.2-1.82-2.3,.54-2.31,1.82-2.31,1.81,1.19,1.81,2.31m-2.52,0c0,.42,.14,1.33,.71,1.33s.71-.92,.71-1.33-.13-1.32-.71-1.32-.71,.91-.71,1.32"/><path class="f" d="M11.72,10.46v.85h-.52v.88h-1.03v-.88h-2.07v-.7l1.65-2.68h1.45v2.54h.52Zm-1.55-1.64h0l-1,1.64h1.01v-1.64Z"/></g></g></svg>