<?xml version="1.0" encoding="UTF-8"?><svg id="b" xmlns="http://www.w3.org/2000/svg" viewBox="0 0 16 16"><defs><style>.d{fill:#fff;}.e{fill:#afbe22;}.f{fill:#231815;}</style></defs><g id="c"><g><path class="e" d="M8,0C3.58,0,0,3.58,0,8s3.58,8,8,8,8-3.59,8-8S12.42,0,8,0"/><path class="d" d="M8,14.12c-3.38,0-6.13-2.74-6.13-6.12S4.61,1.88,8,1.88s6.11,2.74,6.11,6.12-2.74,6.12-6.11,6.12"/><path class="f" d="M8.9,3.9c-.19-.16-.43-.26-.69-.26-.19,0-.44,.12-.44,.33,0,.23,.28,.32,.46,.38l.26,.08c.55,.16,.98,.44,.98,1.08,0,.39-.09,.8-.41,1.07-.31,.26-.73,.37-1.12,.37-.51,0-.99-.17-1.4-.45l.44-.83c.26,.22,.56,.41,.92,.41,.24,0,.5-.12,.5-.4s-.4-.39-.63-.45c-.64-.18-1.07-.35-1.07-1.12s.57-1.33,1.37-1.33c.4,0,.89,.13,1.24,.33l-.41,.8Z"/><path class="f" d="M7.87,10.05c0,1.11-.54,2.3-1.81,2.3s-1.81-1.19-1.81-2.3,.54-2.3,1.81-2.3,1.81,1.19,1.81,2.3m-2.52,0c0,.41,.13,1.33,.71,1.33s.71-.92,.71-1.33-.14-1.32-.71-1.32-.71,.9-.71,1.32"/><path class="f" d="M9.72,8.86l-.07,.49,.35-.03c.87-.07,1.51,.65,1.51,1.53,0,.44-.2,.87-.55,1.15-.34,.27-.82,.36-1.24,.36-.49,0-.98-.12-1.39-.38l.17-1.04c.33,.29,.75,.49,1.19,.49,.35,0,.67-.26,.67-.63,0-.51-.49-.73-.93-.73-.28,0-.56,.06-.81,.17l.37-2.31h2.22v.94h-1.48Z"/></g></g></svg>