<?xml version="1.0" encoding="UTF-8"?><svg id="b" xmlns="http://www.w3.org/2000/svg" viewBox="0 0 16 16"><defs><style>.d{fill:#fff;}.e{fill:#afbe22;}.f{fill:#231815;}</style></defs><g id="c"><g><path class="e" d="M8,0C3.59,0,0,3.58,0,8.01s3.59,7.99,8,7.99,8-3.58,8-7.99S12.42,0,8,0"/><path class="d" d="M8,14.12c-3.38,0-6.12-2.74-6.12-6.12S4.61,1.88,8,1.88s6.12,2.74,6.12,6.12-2.74,6.12-6.12,6.12"/><path class="f" d="M8.89,3.9c-.19-.16-.43-.26-.68-.26-.19,0-.44,.11-.44,.33s.28,.32,.45,.38l.26,.07c.55,.17,.98,.44,.98,1.09,0,.4-.09,.8-.41,1.07-.31,.27-.73,.38-1.12,.38-.5,0-.99-.17-1.4-.45l.44-.83c.26,.23,.56,.41,.92,.41,.24,0,.5-.12,.5-.4s-.41-.39-.62-.45c-.65-.18-1.08-.35-1.08-1.12,0-.81,.57-1.33,1.37-1.33,.4,0,.88,.12,1.24,.32l-.41,.8Z"/><path class="f" d="M7.88,10.05c0,1.11-.54,2.3-1.81,2.3s-1.8-1.19-1.8-2.3,.54-2.3,1.8-2.3,1.81,1.2,1.81,2.3m-2.52,0c0,.41,.13,1.33,.71,1.33s.71-.92,.71-1.33-.14-1.32-.71-1.32-.71,.91-.71,1.32"/><path class="f" d="M11,7.92l-1.21,1.44h.01c.19-.08,.37-.12,.59-.12,.84,0,1.37,.72,1.37,1.5,0,1.04-.86,1.61-1.83,1.61-.41,0-.89-.11-1.22-.37-.34-.28-.57-.73-.57-1.17,0-.62,.32-1.22,.69-1.7l.91-1.2h1.26Zm-.39,2.86c0-.38-.3-.7-.68-.7s-.7,.32-.7,.7,.32,.7,.7,.7,.68-.31,.68-.7"/></g></g></svg>