<?xml version="1.0" encoding="UTF-8"?><svg id="b" xmlns="http://www.w3.org/2000/svg" viewBox="0 0 16 16"><defs><style>.d{fill:#fff;}.e{fill:#afbe22;}.f{fill:#231815;}</style></defs><g id="c"><g><path class="e" d="M8,0C3.59,0,0,3.58,0,8s3.59,8,8,8,8-3.58,8-8S12.41,0,8,0"/><path class="d" d="M8,14.12c-3.39,0-6.11-2.74-6.11-6.12S4.61,1.88,8,1.88s6.11,2.74,6.11,6.12-2.74,6.12-6.11,6.12"/><path class="f" d="M8.9,3.9c-.19-.16-.43-.26-.68-.26-.19,0-.45,.11-.45,.33s.28,.32,.46,.38l.26,.08c.55,.16,.98,.44,.98,1.08,0,.4-.09,.8-.41,1.07-.31,.26-.72,.38-1.12,.38-.5,0-.99-.17-1.39-.46l.44-.83c.26,.22,.57,.41,.92,.41,.24,0,.5-.12,.5-.4s-.4-.39-.63-.45c-.64-.19-1.07-.35-1.07-1.12s.58-1.33,1.37-1.33c.4,0,.88,.13,1.24,.33l-.41,.8Z"/><path class="f" d="M7.89,10.05c0,1.11-.54,2.3-1.81,2.3s-1.81-1.19-1.81-2.3,.55-2.3,1.81-2.3,1.81,1.19,1.81,2.3m-2.52,0c0,.42,.13,1.33,.71,1.33s.71-.91,.71-1.33-.14-1.32-.71-1.32-.71,.91-.71,1.32"/><polygon class="f" points="8.42 8.86 8.42 7.92 11.92 7.92 9.46 12.19 8.25 12.19 10.19 8.86 8.42 8.86"/></g></g></svg>