<?xml version="1.0" encoding="UTF-8"?><svg id="b" xmlns="http://www.w3.org/2000/svg" viewBox="0 0 16 16"><defs><style>.d{fill:#fff;}.e{fill:#afbe22;}.f{fill:#231815;}</style></defs><g id="c"><g><path class="e" d="M7.99,0C3.58,0,0,3.59,0,8s3.58,8,7.99,8,8.01-3.58,8.01-8S12.42,0,7.99,0"/><path class="d" d="M7.99,14.12c-3.38,0-6.12-2.74-6.12-6.12S4.62,1.88,7.99,1.88s6.12,2.74,6.12,6.12-2.74,6.12-6.12,6.12"/><path class="f" d="M8.9,3.9c-.2-.16-.43-.26-.69-.26-.19,0-.44,.11-.44,.33s.28,.32,.46,.38l.27,.08c.55,.16,.97,.44,.97,1.08,0,.4-.09,.8-.41,1.06-.32,.27-.73,.38-1.13,.38-.5,0-.99-.17-1.4-.45l.44-.83c.26,.23,.57,.41,.92,.41,.24,0,.5-.12,.5-.4s-.4-.39-.63-.45c-.64-.19-1.07-.35-1.07-1.12,0-.81,.57-1.33,1.37-1.33,.4,0,.89,.13,1.24,.32l-.41,.8Z"/><path class="f" d="M7.88,10.05c0,1.12-.54,2.31-1.81,2.31s-1.81-1.19-1.81-2.31,.55-2.3,1.81-2.3,1.81,1.19,1.81,2.3m-2.52,0c0,.41,.14,1.33,.71,1.33s.71-.92,.71-1.33-.14-1.32-.71-1.32-.71,.9-.71,1.32"/><path class="f" d="M11.41,8.97c0,.46-.28,.84-.68,.97h0c.51,.18,.85,.57,.85,1.13,0,.88-.9,1.29-1.63,1.29s-1.63-.41-1.63-1.29c0-.56,.34-.95,.85-1.12h0c-.39-.14-.67-.52-.67-.98,0-.81,.72-1.22,1.45-1.22s1.46,.4,1.46,1.22m-1.97,1.96c0,.29,.23,.52,.51,.52s.51-.23,.51-.52-.23-.53-.51-.53-.51,.24-.51,.53m.04-1.92c0,.27,.21,.48,.47,.48s.47-.21,.47-.48-.21-.48-.47-.48-.47,.21-.47,.48"/></g></g></svg>