<?xml version="1.0" encoding="UTF-8"?><svg id="b" xmlns="http://www.w3.org/2000/svg" viewBox="0 0 16 16"><defs><style>.d{fill:#fff;}.e{fill:#afbe22;}.f{fill:#231815;}</style></defs><g id="c"><g><path class="e" d="M8,0C3.58,0,0,3.58,0,8s3.58,8,8,8,8-3.58,8-8S12.42,0,8,0"/><path class="d" d="M8,14.12c-3.38,0-6.12-2.74-6.12-6.12S4.62,1.88,8,1.88s6.12,2.74,6.12,6.12-2.74,6.12-6.12,6.12"/><path class="f" d="M8.9,3.9c-.19-.16-.43-.26-.69-.26-.19,0-.44,.11-.44,.33,0,.23,.28,.32,.46,.38l.26,.08c.56,.16,.98,.44,.98,1.08,0,.4-.09,.8-.41,1.07-.31,.26-.73,.37-1.12,.37-.5,0-.99-.17-1.4-.45l.44-.83c.26,.22,.57,.41,.92,.41,.24,0,.5-.13,.5-.4s-.41-.39-.63-.45c-.65-.18-1.07-.35-1.07-1.12,0-.81,.57-1.33,1.37-1.33,.41,0,.89,.12,1.24,.33l-.41,.8Z"/><path class="f" d="M7.88,10.06c0,1.1-.54,2.3-1.81,2.3s-1.81-1.2-1.81-2.3,.54-2.31,1.81-2.31,1.81,1.19,1.81,2.31m-2.52,0c0,.42,.13,1.33,.7,1.33s.71-.92,.71-1.33-.14-1.32-.71-1.32-.7,.91-.7,1.32"/><path class="f" d="M8.91,12.19l1.22-1.44h-.01c-.2,.08-.38,.13-.6,.13-.84,0-1.37-.72-1.37-1.51,0-1.05,.87-1.61,1.84-1.61,.42,0,.89,.1,1.22,.37,.34,.27,.57,.73,.57,1.17,0,.62-.32,1.21-.69,1.7l-.91,1.2h-1.26Zm.39-2.86c0,.39,.29,.7,.69,.7s.71-.31,.71-.7-.32-.7-.71-.7-.69,.31-.69,.7"/></g></g></svg>