<?xml version="1.0" encoding="UTF-8"?><svg id="b" xmlns="http://www.w3.org/2000/svg" viewBox="0 0 16 16"><defs><style>.d{fill:#fff;}.e{fill:#afbe22;}.f{fill:#231815;}</style></defs><g id="c"><g><path class="e" d="M8,0C3.59,0,0,3.58,0,8s3.59,8,8,8,8-3.58,8-8S12.41,0,8,0"/><path class="d" d="M7.99,14.12c-3.38,0-6.12-2.74-6.12-6.11S4.61,1.88,7.99,1.88s6.12,2.74,6.12,6.12-2.74,6.11-6.12,6.11"/><path class="f" d="M8.89,3.9c-.19-.16-.43-.27-.68-.27-.19,0-.44,.12-.44,.34,0,.23,.28,.32,.46,.38l.26,.08c.55,.16,.98,.44,.98,1.08,0,.4-.09,.8-.41,1.07-.31,.26-.72,.38-1.12,.38-.5,0-.99-.17-1.4-.45l.45-.83c.26,.23,.56,.41,.91,.41,.24,0,.5-.12,.5-.4s-.41-.39-.63-.45c-.64-.19-1.07-.35-1.07-1.12,0-.81,.58-1.33,1.37-1.33,.4,0,.89,.13,1.24,.32l-.41,.8Z"/><polygon class="f" points="5.04 8.86 5.04 7.92 6.76 7.92 6.76 12.19 5.65 12.19 5.65 8.86 5.04 8.86"/><path class="f" d="M11.76,10.05c0,1.11-.53,2.3-1.81,2.3s-1.81-1.19-1.81-2.3,.54-2.3,1.81-2.3,1.81,1.19,1.81,2.3m-2.52,0c0,.41,.14,1.33,.71,1.33s.71-.92,.71-1.33-.14-1.32-.71-1.32-.71,.9-.71,1.32"/></g></g></svg>