<?xml version="1.0" encoding="UTF-8"?><svg id="b" xmlns="http://www.w3.org/2000/svg" viewBox="0 0 16 16"><defs><style>.d{fill:#fff;}.e{fill:#afbe22;}.f{fill:#231815;}</style></defs><g id="c"><g><path class="e" d="M8,0C3.58,0,0,3.58,0,8s3.58,8,8,8,8-3.58,8-8S12.41,0,8,0"/><path class="d" d="M7.99,14.12c-3.38,0-6.11-2.74-6.11-6.12S4.61,1.88,7.99,1.88s6.12,2.74,6.12,6.12-2.74,6.12-6.12,6.12"/><path class="f" d="M8.89,3.89c-.19-.16-.43-.26-.68-.26-.19,0-.45,.11-.45,.33,0,.23,.28,.32,.47,.38l.25,.08c.55,.16,.98,.44,.98,1.08,0,.39-.1,.8-.42,1.07-.31,.27-.72,.38-1.12,.38-.5,0-1-.17-1.4-.46l.44-.83c.26,.22,.57,.41,.92,.41,.25,0,.5-.12,.5-.4s-.4-.39-.63-.45c-.65-.18-1.07-.35-1.07-1.12s.57-1.33,1.37-1.33c.4,0,.89,.13,1.24,.33l-.42,.8Z"/><polygon class="f" points="5.04 8.86 5.04 7.93 6.76 7.93 6.76 12.19 5.66 12.19 5.66 8.86 5.04 8.86"/><polygon class="f" points="8.92 8.86 8.92 7.93 10.64 7.93 10.64 12.19 9.53 12.19 9.53 8.86 8.92 8.86"/></g></g></svg>