<?xml version="1.0" encoding="UTF-8"?><svg id="b" xmlns="http://www.w3.org/2000/svg" viewBox="0 0 16 16"><defs><style>.d{fill:#fff;}.e{fill:#afbe22;}.f{fill:#231815;}</style></defs><g id="c"><g><path class="e" d="M8,0C3.58,0,0,3.58,0,8s3.58,8,8,8,8-3.58,8-8S12.41,0,8,0"/><path class="d" d="M7.99,14.12c-3.38,0-6.11-2.74-6.11-6.12S4.61,1.88,7.99,1.88s6.12,2.74,6.12,6.12-2.74,6.12-6.12,6.12"/><path class="f" d="M8.89,3.89c-.19-.16-.43-.26-.68-.26-.19,0-.44,.11-.44,.33s.28,.32,.46,.38l.26,.08c.56,.16,.98,.44,.98,1.08,0,.4-.1,.8-.41,1.07-.31,.26-.73,.37-1.12,.37-.5,0-.99-.17-1.4-.45l.44-.83c.26,.23,.56,.41,.91,.41,.24,0,.5-.12,.5-.4s-.41-.39-.62-.45c-.65-.19-1.08-.35-1.08-1.12,0-.81,.57-1.33,1.37-1.33,.4,0,.88,.13,1.24,.33l-.41,.8Z"/><polygon class="f" points="5.04 8.86 5.04 7.92 6.76 7.92 6.76 12.19 5.65 12.19 5.65 8.86 5.04 8.86"/><path class="f" d="M11.63,11.25v.93h-3.43l1.75-1.89c.25-.27,.49-.66,.49-1.05,0-.27-.19-.56-.49-.56s-.46,.23-.46,.52c0,.06,0,.12,.01,.18h-1.22c.03-.98,.66-1.64,1.66-1.64,.89,0,1.65,.59,1.65,1.52,0,.61-.26,.97-.69,1.36l-.66,.62h1.4Z"/></g></g></svg>