<?xml version="1.0" encoding="UTF-8"?><svg id="b" xmlns="http://www.w3.org/2000/svg" viewBox="0 0 16 16"><defs><style>.d{fill:#fff;}.e{fill:#afbe22;}.f{fill:#231815;}</style></defs><g id="c"><g><path class="e" d="M8,0C3.59,0,0,3.58,0,8s3.59,8,8,8,8-3.58,8-8S12.41,0,8,0"/><path class="d" d="M8,14.12c-3.38,0-6.12-2.74-6.12-6.12S4.62,1.88,8,1.88s6.11,2.74,6.11,6.11-2.74,6.12-6.11,6.12"/><path class="f" d="M8.89,3.89c-.19-.16-.43-.26-.69-.26-.19,0-.44,.11-.44,.33,0,.24,.28,.32,.46,.38l.26,.08c.55,.16,.98,.44,.98,1.08,0,.4-.09,.8-.41,1.07-.31,.26-.73,.37-1.12,.37-.51,0-.99-.17-1.4-.45l.44-.83c.26,.23,.56,.42,.91,.42,.24,0,.5-.12,.5-.4s-.41-.39-.62-.45c-.65-.18-1.07-.35-1.07-1.12s.57-1.33,1.37-1.33c.4,0,.89,.12,1.24,.32l-.41,.8Z"/><polygon class="f" points="5.04 8.86 5.04 7.92 6.76 7.92 6.76 12.18 5.65 12.18 5.65 8.86 5.04 8.86"/><path class="f" d="M8.43,9.15c.04-.45,.22-.79,.5-1.03,.27-.24,.65-.37,1.08-.37,.77,0,1.37,.44,1.37,1.24,0,.34-.14,.7-.45,.88,.45,.12,.7,.64,.7,1.07,0,.93-.82,1.42-1.66,1.42-.49,0-.93-.13-1.28-.48-.25-.26-.5-.7-.49-1.08h1.13c0,.34,.24,.6,.59,.6s.6-.22,.6-.56c0-.32-.27-.57-.58-.57-.07,0-.13,.02-.19,.03v-.74h.11c.28,0,.49-.17,.49-.47,0-.26-.19-.43-.44-.43-.28,0-.46,.22-.44,.49h-1.03Z"/></g></g></svg>