<?xml version="1.0" encoding="UTF-8"?><svg id="b" xmlns="http://www.w3.org/2000/svg" viewBox="0 0 16 16"><defs><style>.d{fill:#fff;}.e{fill:#afbe22;}.f{fill:#231815;}</style></defs><g id="c"><g><path class="e" d="M8,0C3.59,0,0,3.58,0,8s3.59,8,8,8,8-3.58,8-8S12.41,0,8,0"/><path class="d" d="M7.99,14.12c-3.38,0-6.12-2.74-6.12-6.12S4.61,1.88,7.99,1.88s6.12,2.74,6.12,6.11-2.74,6.12-6.12,6.12"/><path class="f" d="M8.89,3.9c-.19-.16-.43-.26-.68-.26-.19,0-.44,.11-.44,.33,0,.23,.28,.32,.46,.38l.26,.08c.55,.17,.98,.44,.98,1.08,0,.4-.1,.8-.41,1.08-.31,.26-.73,.37-1.12,.37-.5,0-.99-.16-1.39-.45l.44-.83c.26,.22,.57,.41,.92,.41,.24,0,.5-.12,.5-.4s-.41-.39-.63-.45c-.64-.18-1.07-.35-1.07-1.12s.57-1.33,1.37-1.33c.4,0,.89,.13,1.24,.33l-.41,.8Z"/><polygon class="f" points="5.04 8.86 5.04 7.92 6.76 7.92 6.76 12.19 5.65 12.19 5.65 8.86 5.04 8.86"/><path class="f" d="M11.72,10.46v.85h-.51v.88h-1.03v-.88h-2.08v-.71l1.65-2.67h1.46v2.54h.51Zm-1.54-1.65h-.02l-.99,1.65h1.01v-1.65Z"/></g></g></svg>