<?xml version="1.0" encoding="UTF-8"?><svg id="b" xmlns="http://www.w3.org/2000/svg" viewBox="0 0 16 16"><defs><style>.d{fill:#fff;}.e{fill:#afbe22;}.f{fill:#231815;}</style></defs><g id="c"><g><path class="e" d="M8,0C3.59,0,0,3.58,0,8s3.59,8,8,8,8-3.58,8-8S12.42,0,8,0"/><path class="d" d="M7.99,14.12c-3.38,0-6.12-2.74-6.12-6.12S4.61,1.88,7.99,1.88s6.12,2.74,6.12,6.12-2.75,6.12-6.12,6.12"/><path class="f" d="M8.9,3.9c-.19-.16-.43-.26-.68-.26-.19,0-.45,.12-.45,.34s.28,.32,.46,.38l.26,.08c.55,.16,.98,.44,.98,1.08,0,.39-.09,.8-.42,1.07-.31,.26-.72,.37-1.12,.37-.5,0-.99-.16-1.4-.45l.44-.83c.26,.22,.56,.41,.92,.41,.24,0,.5-.12,.5-.4s-.42-.39-.63-.45c-.64-.19-1.07-.35-1.07-1.12,0-.81,.57-1.33,1.37-1.33,.4,0,.89,.13,1.24,.33l-.41,.8Z"/><polygon class="f" points="5.03 8.86 5.03 7.92 6.75 7.92 6.75 12.18 5.64 12.18 5.64 8.86 5.03 8.86"/><path class="f" d="M9.72,8.86l-.08,.49,.35-.03c.87-.07,1.51,.65,1.51,1.53,0,.45-.2,.86-.55,1.15-.34,.27-.82,.35-1.24,.35-.49,0-.98-.12-1.39-.38l.17-1.05c.33,.29,.74,.49,1.19,.49,.34,0,.67-.26,.67-.63,0-.51-.49-.73-.93-.73-.29,0-.57,.06-.82,.17l.37-2.31h2.21v.94h-1.47Z"/></g></g></svg>