<?xml version="1.0" encoding="UTF-8"?><svg id="b" xmlns="http://www.w3.org/2000/svg" viewBox="0 0 16 16"><defs><style>.d{fill:#fff;}.e{fill:#afbe22;}.f{fill:#231815;}</style></defs><g id="c"><g><path class="e" d="M8,0C3.59,0,0,3.58,0,8s3.59,8,8,8,8-3.58,8-8S12.42,0,8,0"/><path class="d" d="M8,14.12c-3.39,0-6.12-2.74-6.12-6.12S4.61,1.88,8,1.88s6.12,2.74,6.12,6.12-2.74,6.12-6.12,6.12"/><path class="f" d="M8.9,3.9c-.19-.16-.43-.26-.68-.26-.19,0-.44,.11-.44,.33s.28,.32,.46,.38l.26,.08c.55,.16,.98,.44,.98,1.08,0,.4-.1,.8-.41,1.07-.31,.26-.73,.37-1.13,.37-.5,0-.99-.17-1.4-.45l.44-.83c.26,.23,.57,.41,.92,.41,.24,0,.5-.12,.5-.4s-.41-.39-.63-.45c-.65-.19-1.08-.36-1.08-1.12s.57-1.33,1.37-1.33c.4,0,.89,.13,1.24,.33l-.41,.8Z"/><polygon class="f" points="5.04 8.86 5.04 7.92 6.76 7.92 6.76 12.19 5.65 12.19 5.65 8.86 5.04 8.86"/><path class="f" d="M11,7.92l-1.21,1.44h.02c.19-.08,.37-.12,.59-.12,.84,0,1.37,.72,1.37,1.5,0,1.05-.86,1.61-1.84,1.61-.41,0-.89-.11-1.21-.37-.34-.28-.58-.73-.58-1.17,0-.62,.32-1.22,.69-1.69l.91-1.2h1.26Zm-.39,2.86c0-.39-.29-.69-.69-.69s-.7,.31-.7,.69,.32,.71,.7,.71,.69-.32,.69-.71"/></g></g></svg>