<?xml version="1.0" encoding="UTF-8"?><svg id="b" xmlns="http://www.w3.org/2000/svg" viewBox="0 0 16 16"><defs><style>.d{fill:#fff;}.e{fill:#afbe22;}.f{fill:#231815;}</style></defs><g id="c"><g><path class="e" d="M8,0C3.59,0,0,3.58,0,8s3.59,8,8,8,8-3.58,8-8S12.42,0,8,0"/><path class="d" d="M8,14.11c-3.38,0-6.12-2.73-6.12-6.11S4.62,1.88,8,1.88s6.11,2.74,6.11,6.12-2.74,6.11-6.11,6.11"/><path class="f" d="M8.9,3.9c-.19-.16-.43-.27-.69-.27-.19,0-.45,.11-.45,.33,0,.23,.28,.32,.47,.38l.26,.08c.55,.16,.98,.44,.98,1.08,0,.39-.1,.8-.41,1.07-.32,.26-.73,.37-1.13,.37-.5,0-.99-.17-1.4-.45l.45-.83c.26,.23,.56,.41,.91,.41,.24,0,.5-.12,.5-.4s-.4-.39-.63-.45c-.64-.18-1.07-.35-1.07-1.12s.57-1.33,1.37-1.33c.4,0,.89,.12,1.24,.33l-.41,.8Z"/><polygon class="f" points="5.04 8.86 5.04 7.92 6.77 7.92 6.77 12.19 5.65 12.19 5.65 8.86 5.04 8.86"/><polygon class="f" points="8.41 8.86 8.41 7.92 11.91 7.92 9.47 12.19 8.25 12.19 10.2 8.86 8.41 8.86"/></g></g></svg>