<?xml version="1.0" encoding="UTF-8"?><svg id="b" xmlns="http://www.w3.org/2000/svg" viewBox="0 0 16 16"><defs><style>.d{fill:#fff;}.e{fill:#afbe22;}.f{fill:#231815;}</style></defs><g id="c"><g><path class="e" d="M8,0C3.58,0,0,3.58,0,8s3.58,8,8,8,8-3.58,8-8S12.42,0,8,0"/><path class="d" d="M8,14.12c-3.38,0-6.12-2.74-6.12-6.12S4.62,1.88,8,1.88s6.12,2.74,6.12,6.12-2.74,6.12-6.12,6.12"/><path class="f" d="M8.9,3.9c-.19-.16-.44-.26-.69-.26-.19,0-.44,.11-.44,.33,0,.23,.28,.32,.46,.38l.26,.08c.55,.17,.98,.44,.98,1.08,0,.4-.1,.8-.41,1.07-.31,.26-.73,.37-1.12,.37-.5,0-.99-.17-1.4-.45l.44-.83c.26,.23,.57,.41,.92,.41,.24,0,.5-.12,.5-.4s-.4-.39-.63-.45c-.65-.19-1.07-.36-1.07-1.12s.58-1.33,1.37-1.33c.4,0,.89,.12,1.24,.32l-.41,.8Z"/><polygon class="f" points="5.05 8.86 5.05 7.92 6.77 7.92 6.77 12.19 5.65 12.19 5.65 8.86 5.05 8.86"/><path class="f" d="M11.41,8.97c0,.45-.28,.84-.67,.97h0c.5,.18,.85,.57,.85,1.14,0,.88-.9,1.29-1.63,1.29s-1.63-.41-1.63-1.29c0-.56,.34-.95,.85-1.12h0c-.39-.14-.68-.53-.68-.98,0-.81,.73-1.21,1.46-1.21s1.45,.4,1.45,1.21m-1.96,1.96c0,.29,.23,.53,.51,.53s.5-.23,.5-.53-.23-.53-.5-.53-.51,.24-.51,.53m.04-1.92c0,.27,.21,.48,.47,.48s.47-.21,.47-.48-.21-.48-.47-.48-.47,.22-.47,.48"/></g></g></svg>