<?xml version="1.0" encoding="UTF-8"?><svg id="b" xmlns="http://www.w3.org/2000/svg" viewBox="0 0 16 16"><defs><style>.d{fill:#fff;}.e{fill:#afbe22;}.f{fill:#231815;}</style></defs><g id="c"><g><path class="e" d="M8,0C3.58,0,0,3.59,0,8s3.58,8,8,8,8-3.58,8-8S12.41,0,8,0"/><path class="d" d="M7.99,14.12c-3.38,0-6.12-2.74-6.12-6.12S4.61,1.88,7.99,1.88s6.12,2.74,6.12,6.12-2.74,6.12-6.12,6.12"/><path class="f" d="M8.89,3.9c-.19-.16-.43-.27-.68-.27-.19,0-.44,.12-.44,.33,0,.24,.28,.32,.46,.38l.26,.08c.55,.16,.98,.44,.98,1.08,0,.39-.09,.8-.41,1.07-.31,.26-.72,.37-1.12,.37-.51,0-.99-.17-1.4-.45l.45-.83c.26,.22,.56,.41,.91,.41,.24,0,.5-.13,.5-.4s-.4-.39-.62-.45c-.65-.19-1.08-.36-1.08-1.12,0-.81,.57-1.33,1.37-1.33,.4,0,.89,.13,1.24,.32l-.41,.8Z"/><polygon class="f" points="5.04 8.86 5.04 7.92 6.76 7.92 6.76 12.19 5.65 12.19 5.65 8.86 5.04 8.86"/><path class="f" d="M8.9,12.19l1.22-1.44h-.01c-.19,.08-.37,.12-.6,.12-.84,0-1.37-.72-1.37-1.51,0-1.05,.86-1.61,1.83-1.61,.42,0,.89,.1,1.21,.37,.35,.28,.57,.73,.57,1.18,0,.62-.32,1.21-.68,1.69l-.91,1.2h-1.27Zm.39-2.86c0,.39,.29,.7,.68,.7s.71-.31,.71-.7-.32-.7-.71-.7-.68,.31-.68,.7"/></g></g></svg>