<?xml version="1.0" encoding="UTF-8"?><svg id="b" xmlns="http://www.w3.org/2000/svg" viewBox="0 0 16 16"><defs><style>.d{fill:#fff;}.e{fill:#afbe22;}.f{fill:#231815;}</style></defs><g id="c"><g><path class="e" d="M8,0C3.58,0,0,3.59,0,8s3.58,8,8,8,8-3.58,8-8S12.42,0,8,0"/><path class="d" d="M8,14.12c-3.38,0-6.12-2.74-6.12-6.12S4.62,1.88,8,1.88s6.12,2.74,6.12,6.12-2.74,6.12-6.12,6.12"/><path class="f" d="M8.9,3.9c-.19-.16-.43-.27-.68-.27-.19,0-.45,.11-.45,.33s.28,.32,.46,.38l.26,.08c.55,.17,.98,.45,.98,1.09,0,.39-.09,.8-.42,1.07-.31,.26-.72,.37-1.13,.37-.5,0-.99-.17-1.4-.45l.45-.83c.26,.23,.56,.41,.91,.41,.24,0,.5-.12,.5-.4s-.41-.39-.63-.45c-.65-.18-1.07-.35-1.07-1.12,0-.81,.58-1.33,1.37-1.33,.4,0,.89,.12,1.24,.33l-.41,.8Z"/><path class="f" d="M7.74,11.25v.94h-3.43l1.74-1.9c.25-.27,.48-.65,.48-1.05,0-.27-.19-.56-.48-.56s-.47,.23-.47,.52c0,.05,0,.12,.02,.18h-1.22c.03-.98,.65-1.64,1.66-1.64,.9,0,1.65,.59,1.65,1.51,0,.62-.26,.97-.69,1.37l-.66,.61h1.4Z"/><path class="f" d="M11.76,10.05c0,1.11-.53,2.3-1.8,2.3s-1.81-1.19-1.81-2.3,.54-2.3,1.81-2.3,1.8,1.19,1.8,2.3m-2.52,0c0,.42,.14,1.33,.71,1.33s.7-.91,.7-1.33-.14-1.32-.7-1.32-.71,.91-.71,1.32"/></g></g></svg>