<?xml version="1.0" encoding="UTF-8"?><svg id="b" xmlns="http://www.w3.org/2000/svg" viewBox="0 0 16 16"><defs><style>.d{fill:#fff;}.e{fill:#afbe22;}.f{fill:#231815;}</style></defs><g id="c"><g><path class="e" d="M8,0C3.58,0,0,3.59,0,8s3.58,8,8,8,8-3.58,8-8S12.42,0,8,0"/><path class="d" d="M8,14.12c-3.38,0-6.13-2.74-6.13-6.12S4.62,1.88,8,1.88s6.12,2.74,6.12,6.12-2.74,6.12-6.12,6.12"/><path class="f" d="M8.9,3.9c-.19-.16-.43-.26-.69-.26-.19,0-.44,.11-.44,.33s.28,.32,.46,.38l.26,.08c.55,.16,.98,.44,.98,1.08,0,.39-.09,.8-.41,1.07-.31,.26-.72,.37-1.12,.37-.5,0-.99-.17-1.4-.45l.44-.83c.26,.23,.57,.41,.91,.41,.24,0,.5-.12,.5-.4s-.4-.39-.62-.45c-.65-.18-1.08-.35-1.08-1.12s.58-1.33,1.37-1.33c.4,0,.89,.13,1.24,.33l-.41,.8Z"/><path class="f" d="M7.75,11.25v.94h-3.43l1.75-1.9c.25-.27,.48-.65,.48-1.04,0-.27-.19-.56-.48-.56s-.47,.24-.47,.52c0,.06,0,.12,.01,.18h-1.22c.03-.98,.66-1.64,1.67-1.64,.89,0,1.65,.59,1.65,1.52,0,.61-.26,.97-.69,1.37l-.66,.61h1.4Z"/><polygon class="f" points="8.92 8.86 8.92 7.92 10.64 7.92 10.64 12.19 9.54 12.19 9.54 8.86 8.92 8.86"/></g></g></svg>