<?xml version="1.0" encoding="UTF-8"?><svg id="b" xmlns="http://www.w3.org/2000/svg" viewBox="0 0 15.99 16"><defs><style>.d{fill:#d6007f;}.e{fill:#fff;}.f{fill:#221815;}</style></defs><g id="c"><g><path class="d" d="M15.99,8c0,4.42-3.58,8-8,8S0,12.41,0,8,3.58,0,8,0s8,3.58,8,8"/><polygon class="e" points="6.76 1.67 7.8 1.67 6.03 3.55 7.88 5.54 6.82 5.54 5.09 3.58 5.09 5.54 4.28 5.54 4.28 1.67 5.09 1.67 5.09 3.51 6.76 1.67"/><path class="e" d="M11.98,3.54c0,1.52-.24,2.03-1.81,2.03-1.45,0-1.98-.2-1.98-1.91s.29-2.04,1.89-2.04c1.41,0,1.89,.27,1.89,1.91m-1.99-1.18c-.92,0-.99,.18-.99,1.24,0,1.16,.09,1.23,1.18,1.23,.93,0,1-.18,1-1.23,0-1.18-.11-1.24-1.18-1.24"/><path class="e" d="M.8,8c0,3.98,3.22,7.2,7.2,7.2s7.2-3.22,7.2-7.2c0-.69-.1-1.36-.28-1.99H1.08c-.18,.63-.28,1.3-.28,1.99"/><path class="f" d="M5.67,13.07c-2.14,0-2.64-.43-2.64-3.24s.45-3.24,2.58-3.24,2.64,.43,2.64,3.24-.44,3.24-2.58,3.24m-1.44-3.23c0,1.97,.12,2.02,1.5,2.02,1.18,0,1.32-.15,1.32-1.9,0-.38-.02-1.39-.12-1.69-.15-.43-.57-.47-1.29-.47-1.29,0-1.41,.07-1.41,2.05"/><polygon class="f" points="11.71 6.65 11.71 13 10.51 13 10.51 7.86 9.35 7.86 9.35 6.65 11.71 6.65"/></g></g></svg>