<?xml version="1.0" encoding="UTF-8"?><svg id="b" xmlns="http://www.w3.org/2000/svg" viewBox="0 0 15.99 16"><defs><style>.d{fill:#d6007f;}.e{fill:#fff;}.f{fill:#221815;}</style></defs><g id="c"><g><path class="d" d="M15.99,8c0,4.42-3.58,8-8,8S0,12.41,0,8,3.58,0,8,0s8,3.58,8,8"/><polygon class="e" points="6.76 1.67 7.8 1.67 6.03 3.54 7.88 5.54 6.82 5.54 5.09 3.58 5.09 5.54 4.28 5.54 4.28 1.67 5.09 1.67 5.09 3.51 6.76 1.67"/><path class="e" d="M11.98,3.54c0,1.52-.24,2.03-1.81,2.03-1.45,0-1.98-.2-1.98-1.91s.29-2.04,1.89-2.04c1.41,0,1.89,.27,1.89,1.91m-1.99-1.18c-.92,0-.99,.18-.99,1.24,0,1.16,.09,1.23,1.18,1.23,.93,0,1-.18,1-1.23,0-1.18-.11-1.24-1.18-1.24"/><path class="e" d="M.8,8c0,3.98,3.22,7.2,7.2,7.2s7.2-3.22,7.2-7.2c0-.69-.1-1.36-.28-1.99H1.08c-.18,.63-.28,1.3-.28,1.99"/><polygon class="f" points="5.87 6.64 5.87 13 4.67 13 4.67 7.86 3.51 7.86 3.51 6.64 5.87 6.64"/><path class="f" d="M11.47,8.49c0-.42-.05-.74-1.08-.74-1.23,0-1.52,.15-1.52,1.69,.23-.25,.49-.52,1.74-.52,1.69,0,2.08,.76,2.08,1.99,0,1.89-.87,2.15-2.29,2.15-1.71,0-2.71-.11-2.71-2.74,0-2.84,.15-3.74,2.53-3.74,1.49,0,2.44,.24,2.43,1.91h-1.18Zm-2.58,2.57c0,.73,.33,.86,1.45,.86s1.22-.25,1.22-.98c0-.59-.23-.86-1.21-.86s-1.45,.03-1.45,.98"/></g></g></svg>