<?xml version="1.0" encoding="UTF-8"?><svg id="b" xmlns="http://www.w3.org/2000/svg" viewBox="0 0 15.99 16"><defs><style>.d{fill:#d6007f;}.e{fill:#fff;}.f{fill:#221815;}</style></defs><g id="c"><g><path class="d" d="M15.99,8c0,4.42-3.58,8-8,8S0,12.41,0,8,3.58,0,8,0s8,3.58,8,8"/><polygon class="e" points="6.76 1.67 7.8 1.67 6.03 3.54 7.88 5.54 6.82 5.54 5.09 3.58 5.09 5.54 4.28 5.54 4.28 1.67 5.09 1.67 5.09 3.51 6.76 1.67"/><path class="e" d="M11.98,3.54c0,1.52-.24,2.03-1.81,2.03-1.45,0-1.98-.2-1.98-1.91s.29-2.04,1.89-2.04c1.41,0,1.89,.27,1.89,1.91m-1.99-1.18c-.92,0-.99,.18-.99,1.24,0,1.16,.09,1.23,1.18,1.23,.93,0,1-.18,1-1.23,0-1.18-.11-1.24-1.18-1.24"/><path class="e" d="M.8,8c0,3.98,3.22,7.2,7.2,7.2s7.2-3.22,7.2-7.2c0-.69-.1-1.36-.28-1.99H1.08c-.18,.63-.28,1.3-.28,1.99"/><polygon class="f" points="5.86 6.64 5.86 13 4.66 13 4.66 7.86 3.5 7.86 3.5 6.64 5.86 6.64"/><path class="f" d="M7.82,8.38c0-1.53,.97-1.8,2.43-1.8s2.6,.14,2.6,1.8c0,.23-.01,1.02-.71,1.33,.81,.26,.81,1.33,.81,1.48,0,1.73-1.21,1.87-2.54,1.87-1.19,0-2.69-.02-2.69-1.84,0-.23,0-1.26,.81-1.52-.56-.26-.7-.81-.7-1.33m1.07,2.75c0,.6,.28,.76,1.44,.76,1.26,0,1.45-.19,1.45-.83,0-.81-.54-.81-1.45-.81-1.17,0-1.44,.12-1.44,.89m.11-2.65c0,.65,.31,.72,1.42,.72s1.26-.15,1.26-.77c0-.55-.25-.69-1.34-.69s-1.34,.15-1.34,.73"/></g></g></svg>