<?xml version="1.0" encoding="UTF-8"?><svg id="b" xmlns="http://www.w3.org/2000/svg" viewBox="0 0 15.99 16"><defs><style>.d{fill:#d6007f;}.e{fill:#fff;}.f{fill:#221815;}</style></defs><g id="c"><g><path class="d" d="M15.99,8c0,4.42-3.58,8-8,8S0,12.41,0,8,3.58,0,8,0s8,3.58,8,8"/><polygon class="e" points="6.76 1.67 7.8 1.67 6.03 3.54 7.88 5.54 6.82 5.54 5.09 3.58 5.09 5.54 4.28 5.54 4.28 1.67 5.09 1.67 5.09 3.51 6.76 1.67"/><path class="e" d="M11.98,3.54c0,1.52-.24,2.03-1.81,2.03-1.45,0-1.98-.2-1.98-1.91s.29-2.04,1.89-2.04c1.41,0,1.89,.27,1.89,1.91m-1.99-1.18c-.92,0-.99,.18-.99,1.24,0,1.16,.09,1.23,1.18,1.23,.93,0,1-.18,1-1.23,0-1.18-.11-1.24-1.18-1.24"/><path class="e" d="M.8,8c0,3.97,3.22,7.2,7.2,7.2s7.2-3.22,7.2-7.2c0-.69-.1-1.36-.28-1.99H1.08c-.18,.63-.28,1.3-.28,1.99"/><path class="f" d="M4.71,10.84c-.38,.06-.64,.15-.64,.75v.2h3.73v1.21H2.94v-1.13c0-.67,.01-2.02,1.35-2.19l1.76-.23c.51-.06,.67-.24,.67-.77,0-.6-.16-.88-1.2-.88-1.24,0-1.35,.15-1.36,1.05h-1.11c.01-1.41,.16-2.26,2.37-2.26,1.25,0,2.43,.08,2.43,2.01,0,.29-.03,1.07-.37,1.45-.23,.26-.67,.5-1.06,.56l-1.69,.24Z"/><path class="f" d="M9.95,10.84c-.38,.06-.64,.15-.64,.75v.2h3.73v1.21h-4.86v-1.13c0-.67,.01-2.02,1.35-2.19l1.76-.23c.51-.06,.67-.24,.67-.77,0-.6-.16-.88-1.2-.88-1.24,0-1.35,.15-1.36,1.05h-1.11c.01-1.41,.16-2.26,2.37-2.26,1.25,0,2.43,.08,2.43,2.01,0,.29-.03,1.07-.37,1.45-.23,.26-.67,.5-1.06,.56l-1.69,.24Z"/></g></g></svg>