<?xml version="1.0" encoding="UTF-8"?><svg id="b" xmlns="http://www.w3.org/2000/svg" viewBox="0 0 15.99 16"><defs><style>.d{fill:#d6007f;}.e{fill:#fff;}.f{fill:#221815;}</style></defs><g id="c"><g><path class="d" d="M15.99,8c0,4.42-3.58,8-8,8S0,12.41,0,8,3.58,0,8,0s8,3.58,8,8"/><polygon class="e" points="6.76 1.67 7.8 1.67 6.03 3.54 7.88 5.54 6.82 5.54 5.09 3.58 5.09 5.54 4.28 5.54 4.28 1.67 5.09 1.67 5.09 3.51 6.76 1.67"/><path class="e" d="M11.98,3.54c0,1.52-.24,2.03-1.81,2.03-1.45,0-1.98-.2-1.98-1.91s.29-2.04,1.89-2.04c1.41,0,1.89,.27,1.89,1.91m-1.99-1.18c-.92,0-.99,.18-.99,1.24,0,1.16,.09,1.23,1.18,1.23,.93,0,1-.18,1-1.23,0-1.18-.11-1.24-1.18-1.24"/><path class="e" d="M.8,8c0,3.97,3.22,7.2,7.2,7.2s7.2-3.22,7.2-7.2c0-.69-.1-1.36-.28-1.99H1.08c-.18,.63-.28,1.3-.28,1.99"/><path class="f" d="M4.82,10.84c-.39,.06-.66,.15-.66,.75v.2h3.82v1.21H3.01v-1.13c0-.67,.01-2.02,1.38-2.19l1.8-.23c.52-.06,.68-.24,.68-.77,0-.6-.16-.88-1.23-.88-1.27,0-1.38,.15-1.4,1.05h-1.14c.01-1.41,.16-2.26,2.42-2.26,1.28,0,2.48,.08,2.48,2.01,0,.29-.03,1.07-.38,1.45-.24,.26-.69,.5-1.09,.56l-1.73,.24Z"/><path class="f" d="M12.1,8.49c0-.42-.05-.74-1.05-.74-1.19,0-1.47,.15-1.47,1.69,.22-.25,.47-.52,1.68-.52,1.64,0,2.01,.76,2.01,1.99,0,1.89-.84,2.15-2.22,2.15-1.65,0-2.62-.11-2.62-2.74,0-2.84,.15-3.74,2.45-3.74,1.44,0,2.36,.24,2.35,1.91h-1.14Zm-2.49,2.57c0,.73,.32,.86,1.4,.86s1.18-.25,1.18-.98c0-.59-.22-.86-1.17-.86s-1.4,.03-1.4,.98"/></g></g></svg>