<?xml version="1.0" encoding="UTF-8"?><svg id="b" xmlns="http://www.w3.org/2000/svg" viewBox="0 0 15.99 16"><defs><style>.d{fill:#d6007f;}.e{fill:#fff;}.f{fill:#221815;}</style></defs><g id="c"><g><path class="d" d="M15.99,8c0,4.42-3.58,8-8,8S0,12.41,0,8,3.58,0,8,0s8,3.58,8,8"/><polygon class="e" points="6.76 1.67 7.8 1.67 6.03 3.54 7.88 5.54 6.82 5.54 5.09 3.58 5.09 5.54 4.28 5.54 4.28 1.67 5.09 1.67 5.09 3.51 6.76 1.67"/><path class="e" d="M11.98,3.55c0,1.52-.24,2.03-1.81,2.03-1.45,0-1.98-.2-1.98-1.91s.29-2.04,1.89-2.04c1.41,0,1.89,.27,1.89,1.91m-1.99-1.18c-.92,0-.99,.18-.99,1.24,0,1.16,.09,1.23,1.18,1.23,.93,0,1-.18,1-1.23,0-1.18-.11-1.24-1.18-1.24"/><path class="e" d="M.8,8c0,3.98,3.22,7.2,7.2,7.2s7.2-3.22,7.2-7.2c0-.69-.1-1.36-.28-1.99H1.08c-.18,.63-.28,1.3-.28,1.99"/><path class="f" d="M6.9,6.65v3.91h.93v1.21h-.93v1.24h-1.18v-1.24H2.33v-1.31l2.9-3.8h1.66Zm-1.18,1.1l-2.16,2.81h2.16v-2.81Z"/><path class="f" d="M9.45,10.76c-.01,.93,.07,1.09,1.58,1.09,.7,0,1.24-.1,1.24-.8,0-.76-.5-.77-.86-.77h-1.19v-1.06h1.19c.33,0,.78,0,.78-.67,0-.72-.52-.73-1.41-.73-1.18,0-1.22,.29-1.22,.92h-1.19c.03-1.72,.6-2.15,2.47-2.15,1.09,0,2.53,0,2.53,1.8,0,.19,0,1.03-.71,1.3,.22,.1,.81,.35,.81,1.48,0,1.77-1.26,1.9-2.51,1.9-2.34,0-2.72-.52-2.72-2.31h1.2Z"/></g></g></svg>