<?xml version="1.0" encoding="utf-8"?>
<!-- Generator: Adobe Illustrator 25.4.1, SVG Export Plug-In . SVG Version: 6.00 Build 0)  -->
<svg version="1.1" id="レイヤー_1" xmlns="http://www.w3.org/2000/svg" xmlns:xlink="http://www.w3.org/1999/xlink" x="0px"
	 y="0px" width="150px" height="44px" viewBox="0 0 150 44" style="enable-background:new 0 0 150 44;" xml:space="preserve">
<style type="text/css">
	.st0{fill:#231815;}
	.st1{fill:#888888;}
	.st2{fill:#D5007F;}
	.st3{fill:#DBDCDC;}
</style>
<g>
	<path class="st0" d="M49.56,21.48l4.72-17.69c0,0,0.11-0.54,0.64-0.96C55.35,2.4,56.1,2.4,56.1,2.4h2.14l-2.14,8.15L71.75,2.4H77
		l-18.12,9.11l14.69,9.97h-6l-12.11-8.58l-2.25,8.58H49.56z"/>
	<path class="st0" d="M74.43,21.48l4.5-16.94c0,0,0.32-1.18,1.29-1.72s2.25-0.43,2.25-0.43h17.79l-0.75,2.57H82.36l-1.39,5.36h11.9
		l-0.64,2.47h-11.9l-1.61,6h17.26l-0.64,2.68H74.43z"/>
	<path class="st0" d="M100.26,42.49l4.5-16.94c0,0,0.32-1.18,1.29-1.72c0.96-0.54,2.25-0.43,2.25-0.43h17.79l-0.64,2.57H108.3
		l-1.39,5.36h11.9l-0.64,2.47h-12.01l-1.61,6h17.26l-0.75,2.68H100.26z"/>
	<path class="st0" d="M99.72,21.48l4.61-17.26c0,0,0.21-0.86,0.86-1.39c0.64-0.54,1.5-0.43,1.5-0.43h1.61l-5.04,19.08L99.72,21.48
		L99.72,21.48z"/>
	<path class="st0" d="M66.82,42.49l4.5-17.15c0,0,0.21-0.86,0.86-1.39c0.64-0.54,1.5-0.43,1.5-0.43h1.61l-4.93,18.97
		C70.35,42.49,66.82,42.49,66.82,42.49z"/>
	<path class="st0" d="M44.09,42.49l4.61-17.15c0,0,0.32-0.86,0.96-1.39c0.64-0.54,1.72-0.54,1.72-0.54h1.39l-4.39,16.4h16.29
		l-0.64,2.68H44.09L44.09,42.49z"/>
	<path class="st0" d="M132.42,32.63h9c0.86,0,1.5-0.11,1.93-0.43c0.43-0.32,0.75-0.75,0.96-1.5l0.75-2.79
		c0.21-0.75,0.11-1.29-0.11-1.5c-0.21-0.32-0.86-0.43-1.72-0.43h-12.33l-1.82,6.65l-0.64,2.47l-2.04,7.4h-3.54l4.5-17.04
		c0,0,0.21-1.07,0.96-1.5c0.75-0.54,2.25-0.43,2.25-0.43h14.69c1.61,0,2.68,0.32,3.22,0.86c0.54,0.54,0.64,1.5,0.32,2.79l-1.18,4.29
		c-0.32,1.29-0.96,2.25-1.82,2.79c-0.86,0.54-2.14,0.86-3.64,0.86h-3.11l7.83,7.4h-5.36L132.42,32.63z"/>
	<path class="st0" d="M132.31,17.62c-0.54,2.14-3,3.86-5.36,3.86h-16.29c-2.36,0-3.86-1.72-3.32-3.86l3-11.36
		c0.54-2.14,3-3.86,5.36-3.86h16.29c2.36,0,3.86,1.72,3.32,3.86L132.31,17.62z M127.38,18.69c0.75,0,1.5-0.54,1.72-1.29l3-11.04
		c0.21-0.64-0.32-1.29-1.07-1.29h-15.86c-0.75,0-1.5,0.54-1.72,1.29l-3,11.04c-0.21,0.64,0.32,1.29,1.07,1.29H127.38z"/>
	<path class="st0" d="M73.78,42.49h3.32l3.86-14.69l14.58,14.69h2.04l5.25-18.97h-1.61c0,0-0.96-0.11-1.5,0.32
		c-0.64,0.43-0.86,1.29-0.86,1.29l-3.32,12.76L81.07,23.52c0,0-1.5-0.32-2.25,0.64c-0.32,0.43-0.64,1.82-0.64,1.82L73.78,42.49z"/>
	<path class="st1" d="M11.61,34.77l8.68-32.27h-3.64c0,0-4.93-0.43-6,3.86C9.47,10.76,1,42.49,1,42.49h38.38l2.36-7.83
		C41.73,34.77,11.61,34.77,11.61,34.77z"/>
	<polygon class="st2" points="27.48,18.59 50.31,2.4 38.73,2.4 15.9,18.59 	"/>
	<polygon class="st3" points="27.48,18.59 15.9,18.59 30.05,34.77 41.73,34.77 	"/>
	<polygon class="st0" points="20.19,2.4 38.73,2.4 15.9,18.59 	"/>
	<polygon class="st0" points="15.9,18.59 30.05,34.77 11.61,34.77 	"/>
</g>
</svg>
