<?xml version="1.0" encoding="utf-8"?>
<!-- Generator: Adobe Illustrator 25.4.1, SVG Export Plug-In . SVG Version: 6.00 Build 0)  -->
<svg version="1.1" id="レイヤー_1" xmlns="http://www.w3.org/2000/svg" xmlns:xlink="http://www.w3.org/1999/xlink" x="0px"
	 y="0px" width="138px" height="44px" viewBox="0 0 138 44" style="enable-background:new 0 0 138 44;" xml:space="preserve">
<style type="text/css">
	.st0{fill:#57A100;}
</style>
<g>
	<g>
		<path d="M15.2,13.8c0-0.7,0.1-2.6,0.1-3.5c-0.3,1.2-0.6,1.8-1.2,3.4l-3.4,7.6c-0.4,0.9-0.6,1.5-0.8,2.2H8.2
			c-0.1-0.6-0.4-1.3-0.8-2.2l-3.3-7.4c-0.6-1.3-0.7-1.7-1.3-3.5c0.1,1.5,0.1,3.1,0.1,3.7v7c0,1.1,0,1.8,0.2,2.5h-2
			c0.1-0.8,0.2-1.4,0.2-2.5V10.6c0-1.1,0-1.8-0.2-2.5h2.7c0.1,0.6,0.4,1.4,0.7,2.1l4.6,10.6l4.6-10.6c0.4-0.8,0.6-1.4,0.7-2.1h2.7
			c-0.1,0.8-0.2,1.4-0.2,2.5v10.3c0,1.2,0,1.8,0.2,2.5H15c0.1-0.7,0.2-1.5,0.2-2.5V13.8L15.2,13.8z"/>
		<path d="M24.5,9.5c-0.1,0.6-0.1,1.4-0.1,2.3v0.7h0.9c0.9,0,1.4,0,2-0.1v1.8c-0.6-0.1-1.1-0.1-2-0.1h-0.9v6.7c0,0.6,0.1,0.8,0.3,1
			s0.5,0.3,0.9,0.3c0.5,0,0.9-0.1,1.6-0.5l0.4,1.6c-0.8,0.3-1.5,0.5-2.3,0.5c-0.9,0-1.7-0.2-2.1-0.6c-0.4-0.4-0.6-1-0.6-2v-7h-0.8
			c-0.7,0-1.1,0-1.8,0.1v-1.8c0.6,0.1,0.9,0.1,1.8,0.1h0.8v-0.7c0-0.8-0.1-1.6-0.1-2.3C22.5,9.5,24.5,9.5,24.5,9.5z"/>
		<path d="M32.9,21.1v2.2h-2.2v-2.2H32.9z"/>
		<path d="M42.6,20.2c0,1.4,0.1,2.2,0.2,3.2h-3c0.1-0.8,0.2-1.8,0.2-3.2V4.7h-4.1c-1.4,0-2.4,0-3.3,0.2V2.2c1.1,0.1,1.8,0.2,3.3,0.2
			h10.6c1.7,0,2.6,0,3.5-0.2v2.7c-0.9-0.1-1.8-0.2-3.5-0.2h-4L42.6,20.2L42.6,20.2z"/>
		<path d="M66.4,23.4c-0.2-0.9-0.5-2-0.8-2.8l-1.3-3.4H55l-1.3,3.4c-0.4,1.1-0.6,1.8-0.8,2.8h-3.3c0.5-0.9,0.8-1.5,1.4-3.2L57.1,5
			c0.5-1.3,0.7-1.9,0.9-2.6h3.3c0.1,0.5,0.3,1,0.9,2.6l6.1,15.2c0.7,1.7,1,2.5,1.4,3.2C69.7,23.4,66.4,23.4,66.4,23.4z M60.2,6.3
			c-0.1-0.2-0.1-0.2-0.6-1.7c-0.1,0.4-0.2,0.7-0.3,0.9c-0.1,0.4-0.2,0.6-0.3,0.8L55.7,15h7.8L60.2,6.3z"/>
		<path d="M88.5,20.3c1.6,2,1.8,2.4,2.6,3.1h-3.7c-0.4-0.8-0.9-1.6-1.6-2.5l-6.1-8.1l-3.1,3.1v4.3c0,1.4,0.1,2.2,0.2,3.2h-3
			c0.2-1,0.2-1.8,0.2-3.2V5.6c0-1.3-0.1-2.1-0.2-3.2h3c-0.2,0.9-0.2,1.8-0.2,3.2v7.2l7.9-8c1-1,1.5-1.6,1.9-2.4h3.8
			c-1,1-1.4,1.3-2.8,2.8l-5.9,5.9L88.5,20.3z"/>
		<path d="M111.2,23.4c-0.2-0.9-0.5-2-0.8-2.8l-1.3-3.4h-9.3l-1.3,3.4c-0.4,1.1-0.6,1.8-0.8,2.8h-3.3c0.5-0.9,0.8-1.5,1.4-3.2
			L101.9,5c0.5-1.3,0.7-1.9,0.9-2.6h3.3c0.1,0.5,0.3,1,0.9,2.6l6.1,15.2c0.7,1.7,1,2.5,1.4,3.2C114.5,23.4,111.2,23.4,111.2,23.4z
			 M105,6.3c-0.1-0.2-0.1-0.2-0.6-1.7c-0.1,0.4-0.2,0.7-0.3,0.9c-0.1,0.4-0.2,0.6-0.3,0.8l-3.3,8.7h7.8L105,6.3z"/>
		<path d="M135.9,12.9c0,6.6-3.8,10.9-9.6,10.9c-5.9,0-9.6-4.2-9.6-10.9c0-6.6,3.8-10.9,9.6-10.9C132.1,2,135.9,6.2,135.9,12.9z
			 M133.2,12.9c0-2.9-0.8-5.3-2.3-6.8c-1.2-1.2-2.8-1.8-4.6-1.8c-4.2,0-7,3.4-7,8.6s2.8,8.6,7,8.6C130.5,21.5,133.2,18.2,133.2,12.9
			z"/>
	</g>
	<polygon class="st0" points="70.7,28.8 77.1,31.8 83.2,28.3 87.2,31 98.6,25.6 136.9,43.8 102.3,43.8 60.3,43.8 39.1,43.8 	"/>
</g>
</svg>
